<svg xmlns="http://www.w3.org/2000/svg" width="512" height="512" viewBox="0 0 108 108"><rect width="108" height="108" fill="#5B4BFF"></rect><g transform="translate(54 54) scale(1.2) translate(-54 -47)"><path d="M26 44 L33 12 L52 30 Z M82 44 L75 12 L56 30 Z" fill="#1E1A2F"></path><path d="M31 36 L35 20 L45 30 Z M77 36 L73 20 L63 30 Z" fill="#FF9DB5"></path><ellipse cx="54" cy="54" rx="32" ry="28" fill="#1E1A2F"></ellipse><path d="M54 34 L46 58 Q54 62 62 58 Z" fill="#FFFFFF"></path><ellipse cx="54" cy="66" rx="17" ry="12" fill="#FFFFFF"></ellipse><circle cx="42" cy="52" r="7.5" fill="#FFC83D"></circle><circle cx="66" cy="52" r="7.5" fill="#FFC83D"></circle><circle cx="43" cy="53" r="3.6" fill="#1E1A2F"></circle><circle cx="67" cy="53" r="3.6" fill="#1E1A2F"></circle><circle cx="44.5" cy="50.5" r="1.5" fill="#FFFFFF"></circle><circle cx="68.5" cy="50.5" r="1.5" fill="#FFFFFF"></circle><path d="M50.5 61 L57.5 61 L54 65 Z" fill="#FF9DB5"></path><path d="M54 65 Q54 70 49 70 M54 65 Q54 70 59 70" stroke="#1E1A2F" stroke-width="1.8" fill="none" stroke-linecap="round"></path></g></svg>
